<svg width="33" height="33" viewBox="0 0 33 33" fill="none" xmlns="http://www.w3.org/2000/svg">
<path d="M21.9633 14.146C22.7227 11.787 24.6281 9.12702 27.6867 5.26302C23.8055 8.30802 21.1336 10.205 18.7641 10.961C17.618 8.75602 17.0836 5.53602 16.5 0.650024C15.9164 5.55002 15.382 8.75602 14.2359 10.961C11.8664 10.205 9.19453 8.30802 5.31328 5.26302C8.37187 9.12702 10.2773 11.787 11.0367 14.146C8.82187 15.287 5.5875 15.819 0.679688 16.4C5.60156 16.981 8.82187 17.513 11.0367 18.654C10.2773 21.013 8.37187 23.673 5.31328 27.537C9.19453 24.492 11.8664 22.595 14.2359 21.839C15.382 24.044 15.9164 27.264 16.5 32.15C17.0836 27.25 17.618 24.044 18.7641 21.839C21.1336 22.595 23.8055 24.492 27.6867 27.537C24.6281 23.673 22.7227 21.013 21.9633 18.654C24.1781 17.513 27.4125 16.981 32.3203 16.4C27.4125 15.819 24.1781 15.287 21.9633 14.146Z" fill="#908275"/>
</svg>
