<svg width="77" height="77" viewBox="0 0 77 77" fill="none" xmlns="http://www.w3.org/2000/svg">
<path d="M45.5186 34.514C46.9717 30.86 50.4302 26.655 55.8939 20.4055C49.9216 25.5965 45.8237 28.9605 42.2781 30.5555L38.5 0.163513L34.6637 31.005C30.8275 29.729 26.4972 26.191 19.8273 20.4055C25.3637 26.742 28.8367 30.976 30.2753 34.6735L0.181091 38.4L30.2753 42.1265C28.8222 45.824 25.3637 50.058 19.8273 56.3945C26.4972 50.5945 30.8275 47.071 34.6637 45.795L38.5 76.6365L42.2781 46.259C45.8237 47.8395 49.9216 51.2035 55.8939 56.409C50.4302 50.1595 46.9862 45.9545 45.5186 42.3005L76.8189 38.4L45.5186 34.514Z" fill="#908275"/>
</svg>
