<svg width="34" height="41" viewBox="0 0 34 41" fill="none" xmlns="http://www.w3.org/2000/svg">
<path d="M33.0254 20.6C33.0254 20.7325 32.9268 20.8429 32.7934 20.8705C20.567 23.1392 19.117 24.9553 17.29 40.2843C17.2726 40.4223 17.1508 40.5272 17 40.5272C16.8492 40.5272 16.7274 40.4223 16.71 40.2843C14.883 24.9553 13.4388 23.1392 1.20661 20.8705C1.07321 20.8429 0.974609 20.7325 0.974609 20.6C0.974609 20.4675 1.07321 20.3571 1.20661 20.3295C13.433 18.0608 14.883 16.2447 16.71 0.915671C16.7274 0.777671 16.8492 0.672791 17 0.672791C17.1508 0.672791 17.2726 0.777671 17.29 0.915671C19.117 16.2447 20.5612 18.0608 32.7934 20.3295C32.9268 20.3571 33.0254 20.4675 33.0254 20.6Z" fill="#908275"/>
</svg>
