<svg width="308" height="1207" viewBox="0 0 308 1207" fill="none" xmlns="http://www.w3.org/2000/svg">
<path d="M201.362 17.922L286.834 90.8939C314.127 67.7151 315.213 38.315 288.998 16.0686C262.943 -5.91224 228.509 -5.38673 201.362 17.922ZM185.856 31.297C169.41 45.0731 162.587 60.8327 164.91 76.061L20.8142 208.624C14.9241 214.06 13.991 221.609 21.2775 227.836L1.42326 249.687C-0.588638 251.8 -0.588638 254.852 2.20419 257.231L6.70448 261.209C9.33847 263.458 12.9056 263.593 15.6984 261.734L41.2905 244.652C48.2726 250.879 57.2666 250.077 63.4677 245.048L143.818 181.479V1209.95C143.818 1216.7 150.171 1222 158.086 1222C159.946 1222.02 161.79 1221.72 163.512 1221.12C165.234 1220.52 166.799 1219.63 168.113 1218.51C169.428 1217.39 170.467 1216.05 171.17 1214.58C171.872 1213.11 172.223 1211.53 172.203 1209.95V178.829L171.117 159.893L218.423 122.413C236.266 124.402 255.034 118.175 271.169 104.275L185.856 31.297ZM36.638 219.49L173.447 95.7986C176.081 99.5016 179.337 103.077 183.215 106.523C186.904 109.727 190.956 112.61 195.313 115.129L51.0588 231.673L36.638 219.49Z" fill="#C1AC98"/>
</svg>
